<svg width="22" height="6" viewBox="0 0 22 6" fill="none" xmlns="http://www.w3.org/2000/svg">
<path fill-rule="evenodd" clip-rule="evenodd" d="M21.6667 2.99998L18.3333 0.333313V2.33331H16.3333V3.66665H18.3333V5.66665L21.6667 2.99998ZM15 3.66665H12.3333V2.33331H15V3.66665ZM11 3.66665H8.33333V2.33331H11V3.66665ZM6.99999 3.66665H4.33333V2.33331H6.99999V3.66665ZM1.66666 1.66665C1.93037 1.66665 2.18816 1.74484 2.40742 1.89135C2.62669 2.03786 2.79758 2.2461 2.8985 2.48973C2.99942 2.73337 3.02582 3.00146 2.97438 3.2601C2.92293 3.51874 2.79594 3.75632 2.60947 3.94279C2.423 4.12926 2.18542 4.25625 1.92678 4.30769C1.66814 4.35914 1.40005 4.33274 1.15642 4.23182C0.912782 4.1309 0.704544 3.96001 0.558035 3.74074C0.411527 3.52147 0.333328 3.26369 0.333328 2.99998C0.333328 2.64636 0.473804 2.30722 0.723852 2.05717C0.973901 1.80712 1.31304 1.66665 1.66666 1.66665Z" fill="white"/>
</svg>
