<svg width="22" height="6" viewBox="0 0 22 6" fill="none" xmlns="http://www.w3.org/2000/svg">
<path fill-rule="evenodd" clip-rule="evenodd" d="M21.6667 2.99967L18.3333 0.333008V2.33301H16.3333V3.66634H18.3333V5.66634L21.6667 2.99967ZM15 3.66634H12.3333V2.33301H15V3.66634ZM11 3.66634H8.33333V2.33301H11V3.66634ZM6.99999 3.66634H4.33333V2.33301H6.99999V3.66634ZM1.66666 1.66634C1.93037 1.66634 2.18816 1.74454 2.40742 1.89105C2.62669 2.03756 2.79758 2.24579 2.8985 2.48943C2.99942 2.73306 3.02582 3.00115 2.97438 3.25979C2.92293 3.51844 2.79594 3.75601 2.60947 3.94248C2.423 4.12895 2.18542 4.25594 1.92678 4.30739C1.66814 4.35883 1.40005 4.33243 1.15642 4.23151C0.912782 4.1306 0.704544 3.9597 0.558035 3.74043C0.411527 3.52117 0.333328 3.26338 0.333328 2.99967C0.333328 2.64605 0.473804 2.30691 0.723852 2.05687C0.973901 1.80682 1.31304 1.66634 1.66666 1.66634Z" fill="black"/>
</svg>
